# xmcd
#
# Track frame offsets:
#	150
#	11994
#	21162
#	29330
#	38644
#	43515
#	51132
#	58670
#	68455
#	71675
#	78622
#	89361
#	97293
#	106576
#	116496
#	125339
#	135982
#	139468
#	149618
#	160720
#	168606
#	175318
#	183673
#	188253
#	196152
#	201292
#	208721
#	216481
#	224149
#	232436
#	237783
#	244280
#
# Disc length: 3360 seconds
#
# Revision: 1
# Processed by: cddbd v1.5.1PL2 Copyright (c) Steve Scherf et al.
# Submitted via: audiograbber 1.83.01
#
DISCID=e80d1e20
DTITLE=Various Artist - Early Country Radio - CD 1
DYEAR=1900
DGENRE=Country
TTITLE0=The Carter Family - Keep on the Sunny Side-When Our Lord Shall Come Aga
TTITLE0=in
TTITLE1=The Carter Family - Who's That Knocking
TTITLE2=The Carter Family - Old Ladies Home
TTITLE3=The Carter Family - One Little Word
TTITLE4=The Carter Family - Chinese Breakdown
TTITLE5=The Carter Family - I Wouldn't Mind Dying
TTITLE6=The Carter Family - The Last Letter
TTITLE7=The Carter Family - I Cannot Be Your Sweetheart
TTITLE8=The Carter Family - Honey Babe
TTITLE9=The Carter Family - I'm Sitting on Top of the World
TTITLE10=The Carter Family - Broken Engagement
TTITLE11=The Carter Family - There'll Be Joy, Joy, Joy
TTITLE12=The Carter Family - Cyclone of Rye Cove
TTITLE13=The Carter Family - Why There's a Tear in My Eye
TTITLE14=The Carter Family - Goin' Back to Texas
TTITLE15=The Carter Family - Diamonds in the Rough
TTITLE16=The Carter Family - Del Rio
TTITLE17=The Carter Family - Broken Down Tramp
TTITLE18=The Carter Family - Just a Few More Days
TTITLE19=The Carter Family - Soldier's Sweetheart
TTITLE20=The Carter Family - Bonnie Blue Eyes
TTITLE21=The Carter Family - What Would You Give in Exchange for Your Soul
TTITLE22=The Carter Family - Keep on the Sunny Side-Announcer-Alabama Gals
TTITLE23=The Carter Family - Little Moses
TTITLE24=The Carter Family - Little Log Cabin By the Sea
TTITLE25=The Carter Family - Room in Heaven for Me
TTITLE26=The Carter Family - The Storms Are on the Ocean
TTITLE27=The Carter Family - Your Mother Still Prays for You, Jack
TTITLE28=The Carter Family - Engine 143
TTITLE29=The Carter Family - Where Shall I Be
TTITLE30=The Carter Family - Homestead on the Farm
TTITLE31=The Carter Family - Diamonds in the Rough
EXTD=
EXTT0=
EXTT1=
EXTT2=
EXTT3=
EXTT4=
EXTT5=
EXTT6=
EXTT7=
EXTT8=
EXTT9=
EXTT10=
EXTT11=
EXTT12=
EXTT13=
EXTT14=
EXTT15=
EXTT16=
EXTT17=
EXTT18=
EXTT19=
EXTT20=
EXTT21=
EXTT22=
EXTT23=
EXTT24=
EXTT25=
EXTT26=
EXTT27=
EXTT28=
EXTT29=
EXTT30=
EXTT31=
PLAYORDER=
